<?xml version="1.0" encoding="UTF-8"?>
<!-- Generated by Pixelmator Pro 3.2.3 -->
<svg width="168" height="169" viewBox="0 0 168 169" xmlns="http://www.w3.org/2000/svg" xmlns:xlink="http://www.w3.org/1999/xlink">
    <path id="Path" fill="#ff0066" stroke="none" d="M 133.300003 6.300003 C 145.699997 13.699997 152.399994 30.5 158 46.600006 C 163.699997 62.699997 168.300003 78.199997 167 93.300003 C 165.600006 108.400002 158.199997 123.199997 147.5 134.600006 C 136.800003 146 122.800003 154.100006 107.199997 160.300003 C 91.599998 166.600006 74.400002 171.100006 60.099998 166.600006 C 45.799999 162 34.299999 148.399994 25.299999 134.600006 C 16.199997 120.800003 9.599998 106.800003 5 91 C 0.400002 75.199997 -2.099998 57.599998 3.599998 43.300003 C 9.300003 28.899994 23.299999 17.800003 38.200001 11.5 C 53.099998 5.199997 69.099998 3.800003 86 2.199997 C 103 0.600006 121 -1.199997 133.300003 6.300003 Z"/>
</svg>
